REM DIRINDEX 1\2,1\3,1\4
REM DIRNAME folder01,folder02,folder03,folder04
TITLE ""
FILE "CD1-24.mp3" MP3
  TRACK 01 AUDIO
    TITLE "2:cjc031_1548"
    INDEX 01 00:00:00
  TRACK 02 AUDIO
    TITLE "3:cjc031_1549"
    INDEX 01 00:01:11
  TRACK 03 AUDIO
    TITLE "2:cjc031_1550"
    INDEX 01 00:02:38
  TRACK 04 AUDIO
    TITLE "3:cjc031_1551"
    INDEX 01 00:03:74
  TRACK 05 AUDIO
    TITLE "2:cjc031_1552"
    INDEX 01 00:05:56
  TRACK 06 AUDIO
    TITLE "3:cjc031_1553"
    INDEX 01 00:07:13
  TRACK 07 AUDIO
    TITLE "2:cjc031_1554"
    INDEX 01 00:08:62
  TRACK 08 AUDIO
    TITLE "3:cjc031_1555"
    INDEX 01 00:10:12
  TRACK 09 AUDIO
    TITLE "2:cjc031_1556"
    INDEX 01 00:11:37
  TRACK 10 AUDIO
    TITLE "3:cjc031_1557"
    INDEX 01 00:12:48
  TRACK 11 AUDIO
    TITLE "2:cjc031_1558"
    INDEX 01 00:14:19
  TRACK 12 AUDIO
    TITLE "3:cjc031_1559"
    INDEX 01 00:15:32
  TRACK 13 AUDIO
    TITLE "2:cjc031_1560"
    INDEX 01 00:16:59
  TRACK 14 AUDIO
    TITLE "3:cjc031_1561"
    INDEX 01 00:18:01
  TRACK 15 AUDIO
    TITLE "2:cjc031_1562"
    INDEX 01 00:19:20
  TRACK 16 AUDIO
    TITLE "3:cjc031_1563"
    INDEX 01 00:20:41
  TRACK 17 AUDIO
    TITLE "2:cjc031_1564"
    INDEX 01 00:22:07
  TRACK 18 AUDIO
    TITLE "3:cjc031_1565"
    INDEX 01 00:23:50
  TRACK 19 AUDIO
    TITLE "2:cjc031_1566"
    INDEX 01 00:25:05
  TRACK 20 AUDIO
    TITLE "3:cjc031_1567"
    INDEX 01 00:26:30
  TRACK 21 AUDIO
    TITLE "2:cjc031_1568"
    INDEX 01 00:28:17
  TRACK 22 AUDIO
    TITLE "3:cjc031_1569"
    INDEX 01 00:29:36
  TRACK 23 AUDIO
    TITLE "2:cjc031_1570"
    INDEX 01 00:30:73
  TRACK 24 AUDIO
    TITLE "3:cjc031_1571"
    INDEX 01 00:32:23
  TRACK 25 AUDIO
    TITLE "2:cjc031_1572"
    INDEX 01 00:34:06
  TRACK 26 AUDIO
    TITLE "3:cjc031_1573"
    INDEX 01 00:35:31
  TRACK 27 AUDIO
    TITLE "2:cjc031_1574"
    INDEX 01 00:36:44
  TRACK 28 AUDIO
    TITLE "3:cjc031_1575"
    INDEX 01 00:37:67
  TRACK 29 AUDIO
    TITLE "2:cjc031_1576"
    INDEX 01 00:39:05
  TRACK 30 AUDIO
    TITLE "3:cjc031_1577"
    INDEX 01 00:40:40
  TRACK 31 AUDIO
    TITLE "2:cjc031_1578"
    INDEX 01 00:42:06
  TRACK 32 AUDIO
    TITLE "3:cjc031_1579"
    INDEX 01 00:43:48
  TRACK 33 AUDIO
    TITLE "2:cjc031_1580"
    INDEX 01 00:45:22
  TRACK 34 AUDIO
    TITLE "3:cjc031_1581"
    INDEX 01 00:46:51
  TRACK 35 AUDIO
    TITLE "2:cjc031_1582"
    INDEX 01 00:47:70
  TRACK 36 AUDIO
    TITLE "3:cjc031_1583"
    INDEX 01 00:49:21
  TRACK 37 AUDIO
    TITLE "2:cjc031_1584"
    INDEX 01 00:50:52
  TRACK 38 AUDIO
    TITLE "3:cjc031_1585"
    INDEX 01 00:51:71
  TRACK 39 AUDIO
    TITLE "2:cjc031_1586"
    INDEX 01 00:53:21
  TRACK 40 AUDIO
    TITLE "3:cjc031_1587"
    INDEX 01 00:54:54
  TRACK 41 AUDIO
    TITLE "2:cjc031_1588"
    INDEX 01 00:56:10
  TRACK 42 AUDIO
    TITLE "3:cjc031_1589"
    INDEX 01 00:57:35
  TRACK 43 AUDIO
    TITLE "2:cjc031_1590"
    INDEX 01 00:58:67
  TRACK 44 AUDIO
    TITLE "3:cjc031_1591"
    INDEX 01 01:00:19
  TRACK 45 AUDIO
    TITLE "2:cjc031_1592"
    INDEX 01 01:01:58
  TRACK 46 AUDIO
    TITLE "3:cjc031_1593"
    INDEX 01 01:02:71
  TRACK 47 AUDIO
    TITLE "2:cjc031_1594"
    INDEX 01 01:04:37
  TRACK 48 AUDIO
    TITLE "3:cjc031_1595"
    INDEX 01 01:05:60
  TRACK 49 AUDIO
    TITLE "2:cjc031_1596"
    INDEX 01 01:07:19
  TRACK 50 AUDIO
    TITLE "3:cjc031_1597"
    INDEX 01 01:08:48
  TRACK 51 AUDIO
    TITLE "2:cjc031_1598"
    INDEX 01 01:10:14
  TRACK 52 AUDIO
    TITLE "3:cjc031_1599"
    INDEX 01 01:11:23
  TRACK 53 AUDIO
    TITLE "2:cjc031_1600"
    INDEX 01 01:12:62
  TRACK 54 AUDIO
    TITLE "3:cjc031_1601"
    INDEX 01 01:14:08
  TRACK 55 AUDIO
    TITLE "2:cjc031_1602"
    INDEX 01 01:15:48
  TRACK 56 AUDIO
    TITLE "3:cjc031_1603"
    INDEX 01 01:17:06
  TRACK 57 AUDIO
    TITLE "2:cjc031_1604"
    INDEX 01 01:18:53
  TRACK 58 AUDIO
    TITLE "3:cjc031_1605"
    INDEX 01 01:20:00
  TRACK 59 AUDIO
    TITLE "2:cjc031_1606"
    INDEX 01 01:21:45
  TRACK 60 AUDIO
    TITLE "3:cjc031_1607"
    INDEX 01 01:23:09
  TRACK 61 AUDIO
    TITLE "2:cjc031_1608"
    INDEX 01 01:24:45
  TRACK 62 AUDIO
    TITLE "3:cjc031_1609"
    INDEX 01 01:25:72
  TRACK 63 AUDIO
    TITLE "2:cjc031_1610"
    INDEX 01 01:27:44
  TRACK 64 AUDIO
    TITLE "3:cjc031_1611"
    INDEX 01 01:28:65
  TRACK 65 AUDIO
    TITLE "2:cjc031_1612"
    INDEX 01 01:30:26
  TRACK 66 AUDIO
    TITLE "3:cjc031_1613"
    INDEX 01 01:31:53
  TRACK 67 AUDIO
    TITLE "2:cjc031_1614"
    INDEX 01 01:33:38
  TRACK 68 AUDIO
    TITLE "3:cjc031_1615"
    INDEX 01 01:34:61
  TRACK 69 AUDIO
    TITLE "2:cjc031_1616"
    INDEX 01 01:36:23
  TRACK 70 AUDIO
    TITLE "3:cjc031_1617"
    INDEX 01 01:37:60
  TRACK 71 AUDIO
    TITLE "2:cjc031_1618"
    INDEX 01 01:39:39
  TRACK 72 AUDIO
    TITLE "3:cjc031_1619"
    INDEX 01 01:40:60
  TRACK 73 AUDIO
    TITLE "2:cjc031_1620"
    INDEX 01 01:42:12
  TRACK 74 AUDIO
    TITLE "3:cjc031_1621"
    INDEX 01 01:43:27
  TRACK 75 AUDIO
    TITLE "2:cjc031_1622"
    INDEX 01 01:44:42
  TRACK 76 AUDIO
    TITLE "3:cjc031_1623"
    INDEX 01 01:45:67
  TRACK 77 AUDIO
    TITLE "2:cjc031_1624"
    INDEX 01 01:47:01
  TRACK 78 AUDIO
    TITLE "3:cjc031_1625"
    INDEX 01 01:48:38
  TRACK 79 AUDIO
    TITLE "2:cjc031_1626"
    INDEX 01 01:49:67
  TRACK 80 AUDIO
    TITLE "3:cjc031_1627"
    INDEX 01 01:51:17
  TRACK 81 AUDIO
    TITLE "0:"
    INDEX 01 01:52:48
